<?xml version="1.0" standalone="no"?>
<!DOCTYPE svg PUBLIC "-//W3C//DTD SVG 20010904//EN"
 "http://www.w3.org/TR/2001/REC-SVG-20010904/DTD/svg10.dtd">
<svg version="1.0" xmlns="http://www.w3.org/2000/svg"
 width="150.000000pt" height="150.000000pt" viewBox="0 0 150.000000 150.000000"
 preserveAspectRatio="xMidYMid meet">

<g transform="translate(0.000000,150.000000) scale(0.100000,-0.100000)"
fill="#000000" stroke="none">
<path d="M926 1344 c6 -25 5 -26 -20 -20 -14 3 -26 3 -27 -1 0 -5 -2 -17 -4
-28 -5 -25 13 -37 38 -24 13 8 25 6 40 -4 19 -12 24 -12 40 3 22 22 22 26 -5
33 l-22 6 24 27 c14 15 19 24 13 20 -7 -4 -13 -4 -13 1 0 4 -16 9 -35 11 -34
2 -35 1 -29 -24z"/>
<path d="M512 1262 c-7 -2 -10 -13 -6 -29 6 -22 4 -24 -14 -19 -17 6 -20 3
-17 -14 7 -34 15 -42 31 -29 7 6 24 9 37 5 16 -4 26 0 35 14 11 17 10 20 -8
20 -21 0 -27 15 -10 25 6 3 10 10 10 14 0 10 -40 19 -58 13z"/>
<path d="M1017 1237 c-4 -14 29 -47 49 -47 8 0 13 4 10 9 -4 5 0 11 6 14 10 4
10 7 1 17 -16 17 -61 22 -66 7z"/>
<path d="M755 1211 c4 -13 0 -20 -16 -24 -19 -5 -20 -8 -10 -21 8 -9 18 -13
24 -9 5 3 21 6 35 7 27 1 44 26 18 26 -19 0 -21 11 -4 28 9 9 5 12 -21 12 -27
0 -31 -3 -26 -19z"/>
<path d="M895 1191 c-22 -10 -55 -30 -72 -45 -18 -15 -33 -24 -33 -19 -1 22
-56 -92 -65 -133 -3 -18 2 -11 13 18 11 25 29 59 40 75 28 39 98 87 116 80 10
-4 13 -1 10 7 -4 9 8 17 33 24 21 5 29 10 18 11 -11 0 -38 -8 -60 -18z"/>
<path d="M663 1192 c-29 -4 -29 -13 -2 -31 18 -11 23 -11 30 1 17 26 8 36 -28
30z"/>
<path d="M1113 1162 c-8 -5 -9 -13 -3 -22 11 -17 23 -8 18 14 -2 9 -8 12 -15
8z"/>
<path d="M1007 1154 c-7 -7 4 -44 13 -44 4 0 12 6 18 13 8 9 6 16 -7 24 -11 7
-21 10 -24 7z"/>
<path d="M1214 1143 c1 -12 -5 -17 -16 -15 -30 5 -18 -29 15 -41 9 -3 17 -13
17 -22 0 -19 14 -19 31 1 10 13 10 17 -2 25 -12 8 -12 10 1 19 13 9 12 13 -9
30 -29 25 -39 25 -37 3z"/>
<path d="M573 1140 c-13 -5 -23 -7 -23 -4 0 3 -6 0 -12 -6 -7 -6 -22 -17 -33
-25 -11 -9 -1 -7 25 5 61 27 98 25 145 -7 37 -24 39 -25 20 -3 -18 21 -74 51
-92 49 -4 0 -18 -4 -30 -9z"/>
<path d="M939 1134 c-7 -9 -23 -14 -36 -11 -33 6 -55 -32 -24 -40 24 -6 25 -8
10 -34 -9 -18 -7 -19 26 -16 40 5 70 26 48 34 -18 6 -16 23 2 23 10 0 14 9 13
25 -3 30 -22 39 -39 19z"/>
<path d="M1070 1146 c0 -2 8 -10 18 -17 15 -13 16 -12 3 4 -13 16 -21 21 -21
13z"/>
<path d="M191 1126 c-23 -13 -23 -14 -5 -24 15 -8 16 -13 5 -25 -10 -13 -9
-17 7 -26 15 -8 23 -7 32 4 8 9 21 13 32 9 16 -5 19 -2 16 18 -2 15 -9 22 -20
20 -12 -2 -18 4 -18 18 0 23 -15 25 -49 6z"/>
<path d="M400 1120 c-15 -29 -4 -40 25 -27 28 14 32 32 9 41 -22 8 -22 8 -34
-14z"/>
<path d="M1110 1095 c38 -52 144 -125 182 -125 7 0 -10 11 -38 24 -29 13 -57
32 -63 43 -6 10 -11 14 -11 8 0 -5 -19 9 -42 30 -23 22 -36 31 -28 20z"/>
<path d="M583 1083 c-6 -16 6 -35 18 -28 5 4 9 -1 9 -9 0 -10 9 -16 24 -16 20
0 23 5 22 32 -1 28 -5 31 -35 32 -18 1 -36 -4 -38 -11z"/>
<path d="M330 1075 c0 -8 -5 -15 -11 -15 -5 0 -8 -4 -5 -9 3 -5 14 -7 24 -4
20 5 25 43 5 43 -7 0 -13 -7 -13 -15z"/>
<path d="M503 1072 c-8 -5 -9 -12 -2 -22 8 -13 10 -13 19 0 18 27 9 39 -17 22z"/>
<path d="M782 1071 c-10 -6 -10 -10 1 -20 12 -9 16 -7 20 9 5 21 0 25 -21 11z"/>
<path d="M338 1024 c-3 -3 -27 -7 -53 -9 -26 -2 -50 -7 -54 -11 -9 -10 120 6
139 16 12 8 11 9 -6 10 -11 0 -23 -3 -26 -6z"/>
<path d="M1111 1004 c0 -11 3 -14 6 -6 3 7 2 16 -1 19 -3 4 -6 -2 -5 -13z"/>
<path d="M1136 1005 c4 -8 10 -15 14 -15 4 0 10 7 14 15 4 10 -1 15 -14 15
-13 0 -18 -5 -14 -15z"/>
<path d="M1292 1008 c5 -15 28 -18 29 -3 0 6 -7 12 -17 13 -10 3 -15 -1 -12
-10z"/>
<path d="M581 973 c2 -23 2 -24 6 -5 4 22 14 28 27 15 4 -4 15 -8 24 -8 10 0
16 -7 15 -19 -1 -13 2 -15 10 -7 19 19 -6 46 -47 49 -34 3 -36 2 -35 -25z"/>
<path d="M762 988 c-15 -15 -15 -35 -1 -43 6 -4 9 0 7 11 -2 12 3 19 12 19 8
0 20 4 27 8 6 4 14 3 17 -2 7 -11 -22 -23 -35 -15 -5 3 -9 -4 -9 -15 0 -29
-59 -46 -105 -31 -23 8 -35 17 -33 27 2 10 -6 17 -19 19 -17 3 -23 -1 -23 -15
0 -28 -47 -34 -54 -8 -5 20 -6 20 -24 4 -11 -10 -23 -17 -28 -16 -22 4 -26 -2
-11 -18 14 -16 14 -20 -3 -40 -15 -20 -20 -21 -30 -8 -17 21 -30 19 -30 -4 0
-10 -7 -21 -15 -25 -23 -8 -18 -26 8 -26 15 0 23 -6 24 -19 2 -18 -3 -19 -47
-14 -43 5 -49 3 -55 -16 -4 -12 -2 -28 5 -36 7 -9 8 -15 0 -20 -16 -10 -12
-43 6 -53 9 -5 26 -7 38 -5 20 5 20 5 -1 -11 -29 -22 -31 -66 -3 -73 11 -3 20
-11 20 -18 0 -24 27 -37 49 -25 19 10 20 8 15 -19 -5 -23 -2 -32 14 -40 10 -6
22 -8 25 -4 4 3 11 -5 16 -19 17 -45 62 -44 86 2 22 43 18 50 -6 12 -27 -41
-62 -41 -67 -1 -3 22 -7 25 -28 21 -20 -4 -24 0 -24 19 0 13 12 36 28 52 25
27 17 29 -16 4 -7 -6 -26 -12 -43 -14 -25 -2 -29 0 -29 22 0 20 -5 25 -26 25
-38 0 -27 30 21 57 22 12 34 23 27 23 -7 0 -11 4 -8 9 3 4 -12 3 -34 -3 -31
-8 -43 -7 -52 3 -11 10 -10 15 5 25 21 16 22 32 1 40 -13 5 -14 9 -4 21 14 17
48 19 70 4 12 -8 9 -9 -12 -5 -32 7 -44 -6 -23 -24 14 -11 14 -15 -1 -31 -24
-27 -9 -35 29 -17 32 15 34 15 47 -5 7 -12 9 -22 4 -24 -5 -2 -24 -12 -42 -23
-34 -21 -35 -40 -1 -40 12 0 19 -7 19 -20 0 -24 8 -25 36 -5 12 8 24 11 28 7
4 -3 4 1 0 11 -9 24 22 23 35 -2 8 -14 4 -24 -19 -46 -33 -31 -31 -45 6 -45
18 0 24 -5 24 -21 0 -30 31 -20 50 16 8 17 16 32 17 34 1 2 16 -7 33 -19 29
-20 30 -24 16 -39 -21 -23 -21 -45 0 -37 10 4 22 -1 29 -11 13 -17 14 -17 32
-1 15 14 22 15 31 6 19 -19 24 -2 8 30 -14 28 -14 30 9 40 21 10 26 7 50 -24
28 -37 50 -40 50 -8 0 12 8 20 23 22 30 4 28 17 -7 48 -30 26 -30 26 -10 47
l19 21 28 -27 c35 -33 42 -34 42 -2 0 14 8 29 21 35 16 9 18 14 8 26 -6 8 -7
14 -1 14 16 0 35 -29 28 -45 -3 -8 -15 -15 -26 -15 -17 0 -19 -4 -14 -27 7
-25 6 -26 -25 -20 -23 5 -30 3 -25 -5 4 -7 3 -8 -5 -4 -6 4 -9 11 -6 16 3 4
-3 14 -13 21 -16 13 -16 13 -2 -5 14 -18 13 -19 -5 -12 -16 6 -15 2 8 -21 35
-37 37 -66 3 -57 -21 5 -25 2 -28 -22 -4 -38 -23 -41 -53 -8 -14 15 -25 23
-25 17 0 -14 44 -53 61 -53 21 0 38 20 32 36 -4 10 3 14 21 14 22 0 30 8 28
30 0 3 -4 13 -8 24 -6 15 -4 17 13 12 22 -7 57 19 48 34 -3 5 4 14 15 20 23
12 27 52 6 69 -7 6 -27 8 -45 5 -32 -7 -37 0 -25 30 5 12 15 15 45 10 31 -5
39 -3 39 9 0 8 -6 17 -12 20 -10 3 -10 9 0 26 17 29 15 34 -12 29 -16 -3 -27
0 -30 9 -11 28 -6 43 14 43 23 0 27 18 6 26 -8 3 -12 13 -9 25 6 20 -11 27
-22 9 -3 -5 -11 -10 -18 -10 -6 0 -2 10 10 21 24 25 43 18 43 -16 0 -12 7 -26
16 -29 19 -7 10 -24 -20 -36 -20 -9 -20 -9 -1 -9 12 -1 26 4 33 11 15 15 16
48 2 48 -5 0 -10 8 -10 18 0 39 -37 54 -65 26 -12 -13 -18 -14 -30 -4 -12 10
-13 16 -4 27 7 7 10 14 8 16 -44 25 -47 26 -53 12 -3 -8 -15 -15 -27 -15 -15
0 -19 4 -15 16 14 36 -52 62 -82 32z m128 -93 c60 -31 83 -133 46 -204 -26
-49 -109 -135 -168 -172 l-49 -32 -69 48 c-91 62 -166 144 -181 198 -9 36 -8
47 10 84 36 74 107 99 200 72 28 -8 45 -7 76 5 52 19 99 20 135 1z"/>
<path d="M583 868 c-63 -16 -99 -95 -73 -162 13 -35 85 -106 154 -152 l56 -37
55 38 c97 66 145 136 145 210 0 43 -23 90 -49 105 -28 14 -86 12 -127 -5 -20
-8 -41 -12 -47 -8 -21 13 -83 19 -114 11z m152 -64 c1 -12 18 -38 39 -57 43
-41 43 -61 4 -124 -18 -30 -24 -33 -72 -33 -52 0 -52 0 -74 45 -12 25 -22 51
-22 59 0 7 18 29 40 49 22 19 40 44 40 55 0 10 3 22 7 26 14 13 38 0 38 -20z"/>
<path d="M870 981 c-15 -28 -12 -39 5 -17 12 16 17 17 45 5 26 -12 30 -18 25
-39 -5 -24 -5 -24 10 -5 19 25 16 35 -21 56 -38 23 -51 23 -64 0z"/>
<path d="M295 971 c4 -13 1 -20 -10 -23 -12 -2 -11 -8 8 -30 21 -24 24 -25 35
-10 9 14 13 14 20 4 7 -11 12 -10 26 3 24 24 20 45 -8 45 -13 0 -26 7 -30 15
-3 8 -15 15 -26 15 -17 0 -20 -4 -15 -19z"/>
<path d="M500 980 c-8 -5 -23 -11 -33 -14 -29 -9 -32 -36 -7 -59 l22 -22 -16
26 c-18 29 -13 39 21 39 13 0 23 5 23 10 0 17 38 11 49 -7 9 -15 10 -15 11 -2
0 33 -37 48 -70 29z"/>
<path d="M207 933 c-4 -21 -7 -66 -7 -100 0 -61 1 -63 25 -63 23 0 25 4 25 46
0 47 -17 133 -30 147 -4 5 -10 -9 -13 -30z"/>
<path d="M1161 950 c-12 -7 -12 -11 2 -25 16 -15 18 -15 23 0 9 21 -7 37 -25
25z"/>
<path d="M1214 949 c-8 -14 18 -31 30 -19 9 9 0 30 -14 30 -5 0 -12 -5 -16
-11z"/>
<path d="M1107 943 c-11 -10 -8 -35 3 -28 6 3 10 1 10 -6 0 -10 3 -10 11 -2 7
7 9 19 6 27 -7 17 -19 21 -30 9z"/>
<path d="M1386 925 c-3 -8 -17 -15 -31 -15 -18 0 -25 -5 -25 -20 0 -11 7 -20
16 -20 11 0 14 -6 9 -20 -5 -16 -2 -19 12 -17 30 4 41 16 36 37 -4 14 0 20 11
20 22 0 20 27 -3 39 -14 8 -20 7 -25 -4z"/>
<path d="M1057 923 c-12 -12 -7 -23 7 -17 11 4 14 0 10 -19 -5 -32 22 -44 47
-21 11 10 19 12 19 6 0 -7 5 -12 10 -12 6 0 10 9 10 20 0 23 -28 27 -36 5 -5
-12 -8 -12 -20 0 -8 7 -14 21 -14 29 0 16 -21 22 -33 9z"/>
<path d="M389 890 c-1 -5 -2 -14 -3 -19 0 -6 -7 -16 -13 -22 -21 -21 -15 -48
12 -55 14 -4 29 -4 32 0 4 3 -1 6 -9 6 -9 0 -21 6 -27 14 -10 12 -8 17 8 25
12 7 18 17 15 26 -8 19 23 32 39 16 17 -17 31 -13 17 4 -14 17 -69 21 -71 5z"/>
<path d="M1180 894 c0 -3 6 -12 14 -20 16 -15 32 -2 21 16 -7 11 -35 14 -35 4z"/>
<path d="M1146 841 c-3 -5 -15 -7 -25 -4 -10 3 -22 0 -25 -6 -4 -6 0 -11 9
-11 9 0 13 -4 10 -10 -3 -5 -2 -10 3 -10 6 0 12 7 16 15 3 8 13 15 21 15 10 0
13 -5 9 -11 -4 -7 -1 -10 7 -7 8 3 14 11 14 19 0 16 -30 25 -39 10z"/>
<path d="M1015 790 c-17 -7 -15 -9 12 -9 36 -1 47 -19 25 -43 -12 -15 -12 -20
-2 -33 17 -21 4 -32 -40 -38 -34 -4 -33 -4 7 -5 47 -2 69 19 52 50 -6 10 -5
19 1 23 17 10 11 44 -9 55 -22 11 -20 11 -46 0z"/>
<path d="M1137 793 c-10 -10 -8 -25 2 -19 5 4 11 0 14 -6 2 -7 8 -10 12 -6 9
9 -1 38 -13 38 -5 0 -12 -3 -15 -7z"/>
<path d="M479 553 c-13 -16 -12 -17 4 -4 16 13 21 21 13 21 -2 0 -10 -8 -17
-17z"/>
<path d="M796 477 c3 -10 9 -15 12 -12 3 3 0 11 -7 18 -10 9 -11 8 -5 -6z"/>
<path d="M631 454 c-12 -15 -21 -32 -21 -39 0 -18 28 -38 44 -32 8 3 20 -1 26
-9 14 -16 56 -19 64 -5 3 5 15 7 27 4 40 -11 52 40 19 78 l-20 24 16 -33 c20
-41 6 -64 -25 -45 -15 10 -20 9 -25 -2 -7 -19 -30 -19 -46 0 -8 9 -21 13 -36
9 -20 -5 -24 -2 -24 17 0 12 7 31 17 41 9 10 13 18 10 18 -3 0 -15 -12 -26
-26z"/>
<path d="M296 382 c3 -9 -2 -37 -11 -61 -18 -53 -18 -51 -1 -51 8 0 16 10 18
23 2 15 10 22 25 22 25 1 44 14 22 16 -8 1 -17 1 -21 0 -12 -2 -9 37 3 45 6 3
16 1 22 -5 14 -14 37 -14 37 -1 0 5 -11 12 -25 15 -14 3 -36 7 -49 10 -19 4
-23 1 -20 -13z"/>
<path d="M1177 384 c-7 -7 32 -74 43 -74 4 0 -1 18 -12 40 -21 43 -22 43 -31
34z"/>
<path d="M1065 369 c-11 -17 1 -21 15 -4 8 9 8 15 2 15 -6 0 -14 -5 -17 -11z"/>
<path d="M1130 365 c0 -2 8 -20 17 -40 17 -35 42 -51 28 -17 -4 9 -9 25 -12
34 -4 14 -33 35 -33 23z"/>
<path d="M436 351 c-6 -10 16 -21 42 -21 13 0 12 3 -4 15 -22 17 -31 18 -38 6z"/>
<path d="M990 340 c-9 -6 -10 -10 -3 -10 6 0 15 5 18 10 8 12 4 12 -15 0z"/>
<path d="M1075 340 c-3 -5 1 -10 9 -10 8 0 22 -10 30 -22 12 -16 16 -18 16 -7
0 15 -30 49 -43 49 -3 0 -9 -4 -12 -10z"/>
<path d="M397 333 c-17 -16 -4 -36 33 -50 23 -9 40 -23 40 -32 0 -12 3 -12 12
-3 18 18 0 42 -42 56 -19 7 -34 17 -32 24 2 13 -1 15 -11 5z"/>
<path d="M900 331 c0 -6 5 -13 10 -16 6 -3 10 1 10 9 0 9 -4 16 -10 16 -5 0
-10 -4 -10 -9z"/>
<path d="M580 322 c0 -4 15 -12 32 -17 43 -13 60 -55 33 -85 -10 -11 -13 -20
-7 -20 21 0 45 48 38 76 -8 31 -96 74 -96 46z"/>
<path d="M985 306 c-18 -13 -18 -14 8 -9 15 3 27 9 27 14 0 13 -13 11 -35 -5z"/>
<path d="M1062 296 c5 -28 34 -44 50 -28 11 11 10 12 -3 7 -11 -4 -23 2 -34
17 -14 19 -16 20 -13 4z"/>
<path d="M915 279 c17 -55 26 -70 35 -64 7 4 8 11 1 18 -5 7 -11 23 -13 36 -1
14 -9 26 -17 29 -10 3 -11 -2 -6 -19z"/>
<path d="M590 266 c0 -13 -7 -29 -15 -36 -19 -16 -2 -40 29 -40 20 0 20 1 -4
20 -20 16 -22 20 -7 20 12 0 17 8 17 30 0 17 -4 30 -10 30 -5 0 -10 -11 -10
-24z"/>
<path d="M815 271 c-3 -6 -1 -11 4 -11 6 0 11 -16 11 -35 0 -19 5 -35 11 -35
14 0 7 82 -8 87 -6 2 -14 -1 -18 -6z"/>
<path d="M869 243 c3 -20 12 -38 20 -41 10 -3 12 0 8 12 -4 10 -7 29 -7 42 0
13 -6 24 -13 24 -10 0 -12 -10 -8 -37z"/>
<path d="M730 255 c6 -8 9 -19 5 -24 -3 -7 0 -8 9 -5 19 7 20 16 4 32 -17 17
-33 15 -18 -3z"/>
<path d="M786 233 c7 -40 11 -49 19 -42 8 8 -7 79 -17 79 -5 0 -6 -17 -2 -37z"/>
<path d="M986 244 c-3 -9 -5 -19 -2 -21 8 -8 55 9 60 23 5 12 2 12 -15 3 -16
-8 -23 -8 -29 1 -5 8 -9 7 -14 -6z"/>
<path d="M370 243 c0 -15 59 -25 78 -13 16 9 16 9 1 10 -9 0 -31 3 -48 6 -18
4 -31 2 -31 -3z"/>
<path d="M701 229 c-1 -30 22 -55 40 -43 8 5 7 10 -5 16 -10 5 -21 19 -26 31
-8 21 -9 21 -9 -4z"/>
</g>
</svg>
